<?xml version="1.0" encoding="utf-8" standalone="no"?>
<!DOCTYPE svg PUBLIC "-//W3C//DTD SVG 1.1//EN"
  "http://www.w3.org/Graphics/SVG/1.1/DTD/svg11.dtd">
<svg xmlns:xlink="http://www.w3.org/1999/xlink" width="460.8pt" height="345.6pt" viewBox="0 0 460.8 345.6" xmlns="http://www.w3.org/2000/svg" version="1.1">
 <metadata>
  <rdf:RDF xmlns:dc="http://purl.org/dc/elements/1.1/" xmlns:cc="http://creativecommons.org/ns#" xmlns:rdf="http://www.w3.org/1999/02/22-rdf-syntax-ns#">
   <cc:Work>
    <dc:type rdf:resource="http://purl.org/dc/dcmitype/StillImage"/>
    <dc:date>2022-10-10T10:11:00.006933</dc:date>
    <dc:format>image/svg+xml</dc:format>
    <dc:creator>
     <cc:Agent>
      <dc:title>Matplotlib v3.5.1, https://matplotlib.org/</dc:title>
     </cc:Agent>
    </dc:creator>
   </cc:Work>
  </rdf:RDF>
 </metadata>
 <defs>
  <style type="text/css">*{stroke-linejoin: round; stroke-linecap: butt}</style>
 </defs>
 <g id="figure_1">
  <g id="patch_1">
   <path d="M 0 345.6 
L 460.8 345.6 
L 460.8 0 
L 0 0 
z
" style="fill: #ffffff"/>
  </g>
  <g id="axes_1">
   <g id="patch_2">
    <path d="M 74.45 286.36 
L 446.764926 286.36 
L 446.764926 10.8 
L 74.45 10.8 
z
" style="fill: #ffffff"/>
   </g>
   <g id="PathCollection_1">
    <defs>
     <path id="C0_0_f2dfe457cd" d="M 0 3.708099 
C 0.983399 3.708099 1.926654 3.317391 2.622022 2.622022 
C 3.317391 1.926654 3.708099 0.983399 3.708099 -0 
C 3.708099 -0.983399 3.317391 -1.926654 2.622022 -2.622022 
C 1.926654 -3.317391 0.983399 -3.708099 0 -3.708099 
C -0.983399 -3.708099 -1.926654 -3.317391 -2.622022 -2.622022 
C -3.317391 -1.926654 -3.708099 -0.983399 -3.708099 0 
C -3.708099 0.983399 -3.317391 1.926654 -2.622022 2.622022 
C -1.926654 3.317391 -0.983399 3.708099 0 3.708099 
z
"/>
    </defs>
    <g clip-path="url(#pcfb1fbf590)">
     <use xlink:href="#C0_0_f2dfe457cd" x="429.84152" y="273.521348" style="fill: none; stroke: #ff8c00; stroke-width: 2"/>
    </g>
    <g clip-path="url(#pcfb1fbf590)">
     <use xlink:href="#C0_0_f2dfe457cd" x="429.84152" y="270.820942" style="fill: none; stroke: #ff8c00; stroke-width: 2"/>
    </g>
    <g clip-path="url(#pcfb1fbf590)">
     <use xlink:href="#C0_0_f2dfe457cd" x="429.84152" y="273.834545" style="fill: none; stroke: #ff8c00; stroke-width: 2"/>
    </g>
   </g>
   <g id="PathCollection_2">
    <defs>
     <path id="md5bdbd78cb" d="M -3.708099 3.708099 
L 3.708099 -3.708099 
M -3.708099 -3.708099 
L 3.708099 3.708099 
" style="stroke: #4169e1; stroke-width: 2"/>
    </defs>
    <g clip-path="url(#pcfb1fbf590)">
     <use xlink:href="#md5bdbd78cb" x="101.734675" y="23.337486" style="fill: #4169e1; stroke: #4169e1; stroke-width: 2"/>
     <use xlink:href="#md5bdbd78cb" x="98.280918" y="23.564682" style="fill: #4169e1; stroke: #4169e1; stroke-width: 2"/>
     <use xlink:href="#md5bdbd78cb" x="98.280918" y="23.458886" style="fill: #4169e1; stroke: #4169e1; stroke-width: 2"/>
     <use xlink:href="#md5bdbd78cb" x="98.280918" y="23.441207" style="fill: #4169e1; stroke: #4169e1; stroke-width: 2"/>
     <use xlink:href="#md5bdbd78cb" x="98.280918" y="23.440997" style="fill: #4169e1; stroke: #4169e1; stroke-width: 2"/>
     <use xlink:href="#md5bdbd78cb" x="98.280918" y="23.436498" style="fill: #4169e1; stroke: #4169e1; stroke-width: 2"/>
     <use xlink:href="#md5bdbd78cb" x="98.280918" y="23.325455" style="fill: #4169e1; stroke: #4169e1; stroke-width: 2"/>
     <use xlink:href="#md5bdbd78cb" x="94.827162" y="23.553715" style="fill: #4169e1; stroke: #4169e1; stroke-width: 2"/>
     <use xlink:href="#md5bdbd78cb" x="94.827162" y="23.522604" style="fill: #4169e1; stroke: #4169e1; stroke-width: 2"/>
     <use xlink:href="#md5bdbd78cb" x="94.827162" y="23.522604" style="fill: #4169e1; stroke: #4169e1; stroke-width: 2"/>
     <use xlink:href="#md5bdbd78cb" x="94.827162" y="23.511963" style="fill: #4169e1; stroke: #4169e1; stroke-width: 2"/>
     <use xlink:href="#md5bdbd78cb" x="94.827162" y="23.482517" style="fill: #4169e1; stroke: #4169e1; stroke-width: 2"/>
     <use xlink:href="#md5bdbd78cb" x="94.827162" y="23.48218" style="fill: #4169e1; stroke: #4169e1; stroke-width: 2"/>
     <use xlink:href="#md5bdbd78cb" x="94.827162" y="23.441207" style="fill: #4169e1; stroke: #4169e1; stroke-width: 2"/>
     <use xlink:href="#md5bdbd78cb" x="94.827162" y="23.392586" style="fill: #4169e1; stroke: #4169e1; stroke-width: 2"/>
     <use xlink:href="#md5bdbd78cb" x="94.827162" y="23.349844" style="fill: #4169e1; stroke: #4169e1; stroke-width: 2"/>
     <use xlink:href="#md5bdbd78cb" x="94.827162" y="23.326181" style="fill: #4169e1; stroke: #4169e1; stroke-width: 2"/>
     <use xlink:href="#md5bdbd78cb" x="94.827162" y="23.337486" style="fill: #4169e1; stroke: #4169e1; stroke-width: 2"/>
     <use xlink:href="#md5bdbd78cb" x="91.373406" y="24.194912" style="fill: #4169e1; stroke: #4169e1; stroke-width: 2"/>
     <use xlink:href="#md5bdbd78cb" x="91.373406" y="111.897734" style="fill: #4169e1; stroke: #4169e1; stroke-width: 2"/>
     <use xlink:href="#md5bdbd78cb" x="91.373406" y="24.19488" style="fill: #4169e1; stroke: #4169e1; stroke-width: 2"/>
     <use xlink:href="#md5bdbd78cb" x="91.373406" y="111.897734" style="fill: #4169e1; stroke: #4169e1; stroke-width: 2"/>
     <use xlink:href="#md5bdbd78cb" x="91.373406" y="24.19488" style="fill: #4169e1; stroke: #4169e1; stroke-width: 2"/>
     <use xlink:href="#md5bdbd78cb" x="91.373406" y="111.897327" style="fill: #4169e1; stroke: #4169e1; stroke-width: 2"/>
     <use xlink:href="#md5bdbd78cb" x="91.373406" y="23.582024" style="fill: #4169e1; stroke: #4169e1; stroke-width: 2"/>
     <use xlink:href="#md5bdbd78cb" x="91.373406" y="111.82952" style="fill: #4169e1; stroke: #4169e1; stroke-width: 2"/>
     <use xlink:href="#md5bdbd78cb" x="91.373406" y="23.582371" style="fill: #4169e1; stroke: #4169e1; stroke-width: 2"/>
     <use xlink:href="#md5bdbd78cb" x="91.373406" y="111.829288" style="fill: #4169e1; stroke: #4169e1; stroke-width: 2"/>
     <use xlink:href="#md5bdbd78cb" x="91.373406" y="111.829288" style="fill: #4169e1; stroke: #4169e1; stroke-width: 2"/>
     <use xlink:href="#md5bdbd78cb" x="91.373406" y="111.822148" style="fill: #4169e1; stroke: #4169e1; stroke-width: 2"/>
     <use xlink:href="#md5bdbd78cb" x="91.373406" y="111.824873" style="fill: #4169e1; stroke: #4169e1; stroke-width: 2"/>
     <use xlink:href="#md5bdbd78cb" x="91.373406" y="111.824873" style="fill: #4169e1; stroke: #4169e1; stroke-width: 2"/>
     <use xlink:href="#md5bdbd78cb" x="91.373406" y="111.824101" style="fill: #4169e1; stroke: #4169e1; stroke-width: 2"/>
     <use xlink:href="#md5bdbd78cb" x="91.373406" y="23.528946" style="fill: #4169e1; stroke: #4169e1; stroke-width: 2"/>
     <use xlink:href="#md5bdbd78cb" x="91.373406" y="111.824101" style="fill: #4169e1; stroke: #4169e1; stroke-width: 2"/>
     <use xlink:href="#md5bdbd78cb" x="91.373406" y="23.529431" style="fill: #4169e1; stroke: #4169e1; stroke-width: 2"/>
     <use xlink:href="#md5bdbd78cb" x="91.373406" y="111.824101" style="fill: #4169e1; stroke: #4169e1; stroke-width: 2"/>
     <use xlink:href="#md5bdbd78cb" x="91.373406" y="23.529589" style="fill: #4169e1; stroke: #4169e1; stroke-width: 2"/>
     <use xlink:href="#md5bdbd78cb" x="91.373406" y="111.824101" style="fill: #4169e1; stroke: #4169e1; stroke-width: 2"/>
     <use xlink:href="#md5bdbd78cb" x="91.373406" y="111.824101" style="fill: #4169e1; stroke: #4169e1; stroke-width: 2"/>
     <use xlink:href="#md5bdbd78cb" x="91.373406" y="111.810114" style="fill: #4169e1; stroke: #4169e1; stroke-width: 2"/>
     <use xlink:href="#md5bdbd78cb" x="91.373406" y="23.522604" style="fill: #4169e1; stroke: #4169e1; stroke-width: 2"/>
     <use xlink:href="#md5bdbd78cb" x="91.373406" y="111.809155" style="fill: #4169e1; stroke: #4169e1; stroke-width: 2"/>
     <use xlink:href="#md5bdbd78cb" x="91.373406" y="111.831951" style="fill: #4169e1; stroke: #4169e1; stroke-width: 2"/>
     <use xlink:href="#md5bdbd78cb" x="91.373406" y="111.831755" style="fill: #4169e1; stroke: #4169e1; stroke-width: 2"/>
     <use xlink:href="#md5bdbd78cb" x="91.373406" y="23.522604" style="fill: #4169e1; stroke: #4169e1; stroke-width: 2"/>
     <use xlink:href="#md5bdbd78cb" x="91.373406" y="111.831755" style="fill: #4169e1; stroke: #4169e1; stroke-width: 2"/>
     <use xlink:href="#md5bdbd78cb" x="91.373406" y="23.522604" style="fill: #4169e1; stroke: #4169e1; stroke-width: 2"/>
     <use xlink:href="#md5bdbd78cb" x="91.373406" y="111.831805" style="fill: #4169e1; stroke: #4169e1; stroke-width: 2"/>
     <use xlink:href="#md5bdbd78cb" x="91.373406" y="23.522604" style="fill: #4169e1; stroke: #4169e1; stroke-width: 2"/>
     <use xlink:href="#md5bdbd78cb" x="91.373406" y="111.831837" style="fill: #4169e1; stroke: #4169e1; stroke-width: 2"/>
     <use xlink:href="#md5bdbd78cb" x="91.373406" y="23.523436" style="fill: #4169e1; stroke: #4169e1; stroke-width: 2"/>
     <use xlink:href="#md5bdbd78cb" x="91.373406" y="111.835569" style="fill: #4169e1; stroke: #4169e1; stroke-width: 2"/>
     <use xlink:href="#md5bdbd78cb" x="91.373406" y="23.523542" style="fill: #4169e1; stroke: #4169e1; stroke-width: 2"/>
     <use xlink:href="#md5bdbd78cb" x="91.373406" y="111.835569" style="fill: #4169e1; stroke: #4169e1; stroke-width: 2"/>
     <use xlink:href="#md5bdbd78cb" x="91.373406" y="23.525101" style="fill: #4169e1; stroke: #4169e1; stroke-width: 2"/>
     <use xlink:href="#md5bdbd78cb" x="91.373406" y="111.835569" style="fill: #4169e1; stroke: #4169e1; stroke-width: 2"/>
     <use xlink:href="#md5bdbd78cb" x="91.373406" y="23.525649" style="fill: #4169e1; stroke: #4169e1; stroke-width: 2"/>
     <use xlink:href="#md5bdbd78cb" x="91.373406" y="111.794324" style="fill: #4169e1; stroke: #4169e1; stroke-width: 2"/>
     <use xlink:href="#md5bdbd78cb" x="91.373406" y="23.512606" style="fill: #4169e1; stroke: #4169e1; stroke-width: 2"/>
     <use xlink:href="#md5bdbd78cb" x="91.373406" y="111.794324" style="fill: #4169e1; stroke: #4169e1; stroke-width: 2"/>
     <use xlink:href="#md5bdbd78cb" x="91.373406" y="23.511963" style="fill: #4169e1; stroke: #4169e1; stroke-width: 2"/>
     <use xlink:href="#md5bdbd78cb" x="91.373406" y="111.794216" style="fill: #4169e1; stroke: #4169e1; stroke-width: 2"/>
     <use xlink:href="#md5bdbd78cb" x="91.373406" y="111.794216" style="fill: #4169e1; stroke: #4169e1; stroke-width: 2"/>
     <use xlink:href="#md5bdbd78cb" x="91.373406" y="111.793921" style="fill: #4169e1; stroke: #4169e1; stroke-width: 2"/>
     <use xlink:href="#md5bdbd78cb" x="91.373406" y="23.487942" style="fill: #4169e1; stroke: #4169e1; stroke-width: 2"/>
     <use xlink:href="#md5bdbd78cb" x="91.373406" y="111.793921" style="fill: #4169e1; stroke: #4169e1; stroke-width: 2"/>
     <use xlink:href="#md5bdbd78cb" x="91.373406" y="23.487942" style="fill: #4169e1; stroke: #4169e1; stroke-width: 2"/>
     <use xlink:href="#md5bdbd78cb" x="91.373406" y="111.793921" style="fill: #4169e1; stroke: #4169e1; stroke-width: 2"/>
     <use xlink:href="#md5bdbd78cb" x="91.373406" y="23.493242" style="fill: #4169e1; stroke: #4169e1; stroke-width: 2"/>
     <use xlink:href="#md5bdbd78cb" x="91.373406" y="111.793921" style="fill: #4169e1; stroke: #4169e1; stroke-width: 2"/>
     <use xlink:href="#md5bdbd78cb" x="91.373406" y="23.482517" style="fill: #4169e1; stroke: #4169e1; stroke-width: 2"/>
     <use xlink:href="#md5bdbd78cb" x="91.373406" y="111.793921" style="fill: #4169e1; stroke: #4169e1; stroke-width: 2"/>
     <use xlink:href="#md5bdbd78cb" x="91.373406" y="111.790208" style="fill: #4169e1; stroke: #4169e1; stroke-width: 2"/>
     <use xlink:href="#md5bdbd78cb" x="91.373406" y="111.7901" style="fill: #4169e1; stroke: #4169e1; stroke-width: 2"/>
     <use xlink:href="#md5bdbd78cb" x="91.373406" y="111.7901" style="fill: #4169e1; stroke: #4169e1; stroke-width: 2"/>
     <use xlink:href="#md5bdbd78cb" x="91.373406" y="111.789081" style="fill: #4169e1; stroke: #4169e1; stroke-width: 2"/>
     <use xlink:href="#md5bdbd78cb" x="91.373406" y="23.48218" style="fill: #4169e1; stroke: #4169e1; stroke-width: 2"/>
     <use xlink:href="#md5bdbd78cb" x="91.373406" y="111.791084" style="fill: #4169e1; stroke: #4169e1; stroke-width: 2"/>
     <use xlink:href="#md5bdbd78cb" x="91.373406" y="23.458538" style="fill: #4169e1; stroke: #4169e1; stroke-width: 2"/>
     <use xlink:href="#md5bdbd78cb" x="91.373406" y="111.791084" style="fill: #4169e1; stroke: #4169e1; stroke-width: 2"/>
     <use xlink:href="#md5bdbd78cb" x="91.373406" y="23.458654" style="fill: #4169e1; stroke: #4169e1; stroke-width: 2"/>
     <use xlink:href="#md5bdbd78cb" x="91.373406" y="111.787086" style="fill: #4169e1; stroke: #4169e1; stroke-width: 2"/>
     <use xlink:href="#md5bdbd78cb" x="91.373406" y="111.787086" style="fill: #4169e1; stroke: #4169e1; stroke-width: 2"/>
     <use xlink:href="#md5bdbd78cb" x="91.373406" y="111.792337" style="fill: #4169e1; stroke: #4169e1; stroke-width: 2"/>
     <use xlink:href="#md5bdbd78cb" x="91.373406" y="111.791992" style="fill: #4169e1; stroke: #4169e1; stroke-width: 2"/>
     <use xlink:href="#md5bdbd78cb" x="91.373406" y="23.458886" style="fill: #4169e1; stroke: #4169e1; stroke-width: 2"/>
     <use xlink:href="#md5bdbd78cb" x="91.373406" y="111.789258" style="fill: #4169e1; stroke: #4169e1; stroke-width: 2"/>
     <use xlink:href="#md5bdbd78cb" x="91.373406" y="23.458886" style="fill: #4169e1; stroke: #4169e1; stroke-width: 2"/>
     <use xlink:href="#md5bdbd78cb" x="91.373406" y="111.789258" style="fill: #4169e1; stroke: #4169e1; stroke-width: 2"/>
     <use xlink:href="#md5bdbd78cb" x="91.373406" y="23.45858" style="fill: #4169e1; stroke: #4169e1; stroke-width: 2"/>
     <use xlink:href="#md5bdbd78cb" x="91.373406" y="111.789258" style="fill: #4169e1; stroke: #4169e1; stroke-width: 2"/>
     <use xlink:href="#md5bdbd78cb" x="91.373406" y="23.441207" style="fill: #4169e1; stroke: #4169e1; stroke-width: 2"/>
     <use xlink:href="#md5bdbd78cb" x="91.373406" y="111.789258" style="fill: #4169e1; stroke: #4169e1; stroke-width: 2"/>
     <use xlink:href="#md5bdbd78cb" x="91.373406" y="111.789258" style="fill: #4169e1; stroke: #4169e1; stroke-width: 2"/>
     <use xlink:href="#md5bdbd78cb" x="91.373406" y="111.789242" style="fill: #4169e1; stroke: #4169e1; stroke-width: 2"/>
     <use xlink:href="#md5bdbd78cb" x="91.373406" y="111.766632" style="fill: #4169e1; stroke: #4169e1; stroke-width: 2"/>
     <use xlink:href="#md5bdbd78cb" x="91.373406" y="111.766743" style="fill: #4169e1; stroke: #4169e1; stroke-width: 2"/>
     <use xlink:href="#md5bdbd78cb" x="91.373406" y="111.762727" style="fill: #4169e1; stroke: #4169e1; stroke-width: 2"/>
     <use xlink:href="#md5bdbd78cb" x="91.373406" y="111.763628" style="fill: #4169e1; stroke: #4169e1; stroke-width: 2"/>
     <use xlink:href="#md5bdbd78cb" x="91.373406" y="111.763626" style="fill: #4169e1; stroke: #4169e1; stroke-width: 2"/>
     <use xlink:href="#md5bdbd78cb" x="91.373406" y="111.763622" style="fill: #4169e1; stroke: #4169e1; stroke-width: 2"/>
     <use xlink:href="#md5bdbd78cb" x="91.373406" y="23.440997" style="fill: #4169e1; stroke: #4169e1; stroke-width: 2"/>
     <use xlink:href="#md5bdbd78cb" x="91.373406" y="111.763622" style="fill: #4169e1; stroke: #4169e1; stroke-width: 2"/>
     <use xlink:href="#md5bdbd78cb" x="91.373406" y="23.440881" style="fill: #4169e1; stroke: #4169e1; stroke-width: 2"/>
     <use xlink:href="#md5bdbd78cb" x="91.373406" y="111.763622" style="fill: #4169e1; stroke: #4169e1; stroke-width: 2"/>
     <use xlink:href="#md5bdbd78cb" x="91.373406" y="23.440944" style="fill: #4169e1; stroke: #4169e1; stroke-width: 2"/>
     <use xlink:href="#md5bdbd78cb" x="91.373406" y="111.763622" style="fill: #4169e1; stroke: #4169e1; stroke-width: 2"/>
     <use xlink:href="#md5bdbd78cb" x="91.373406" y="23.440944" style="fill: #4169e1; stroke: #4169e1; stroke-width: 2"/>
     <use xlink:href="#md5bdbd78cb" x="91.373406" y="111.763622" style="fill: #4169e1; stroke: #4169e1; stroke-width: 2"/>
     <use xlink:href="#md5bdbd78cb" x="91.373406" y="23.453681" style="fill: #4169e1; stroke: #4169e1; stroke-width: 2"/>
     <use xlink:href="#md5bdbd78cb" x="91.373406" y="111.763622" style="fill: #4169e1; stroke: #4169e1; stroke-width: 2"/>
     <use xlink:href="#md5bdbd78cb" x="91.373406" y="23.453681" style="fill: #4169e1; stroke: #4169e1; stroke-width: 2"/>
     <use xlink:href="#md5bdbd78cb" x="91.373406" y="111.734758" style="fill: #4169e1; stroke: #4169e1; stroke-width: 2"/>
     <use xlink:href="#md5bdbd78cb" x="91.373406" y="23.453681" style="fill: #4169e1; stroke: #4169e1; stroke-width: 2"/>
     <use xlink:href="#md5bdbd78cb" x="91.373406" y="111.75927" style="fill: #4169e1; stroke: #4169e1; stroke-width: 2"/>
     <use xlink:href="#md5bdbd78cb" x="91.373406" y="23.442113" style="fill: #4169e1; stroke: #4169e1; stroke-width: 2"/>
     <use xlink:href="#md5bdbd78cb" x="91.373406" y="111.75927" style="fill: #4169e1; stroke: #4169e1; stroke-width: 2"/>
     <use xlink:href="#md5bdbd78cb" x="91.373406" y="23.442113" style="fill: #4169e1; stroke: #4169e1; stroke-width: 2"/>
     <use xlink:href="#md5bdbd78cb" x="91.373406" y="111.75928" style="fill: #4169e1; stroke: #4169e1; stroke-width: 2"/>
     <use xlink:href="#md5bdbd78cb" x="91.373406" y="111.75928" style="fill: #4169e1; stroke: #4169e1; stroke-width: 2"/>
     <use xlink:href="#md5bdbd78cb" x="91.373406" y="111.756787" style="fill: #4169e1; stroke: #4169e1; stroke-width: 2"/>
     <use xlink:href="#md5bdbd78cb" x="91.373406" y="111.750996" style="fill: #4169e1; stroke: #4169e1; stroke-width: 2"/>
     <use xlink:href="#md5bdbd78cb" x="91.373406" y="23.416586" style="fill: #4169e1; stroke: #4169e1; stroke-width: 2"/>
     <use xlink:href="#md5bdbd78cb" x="91.373406" y="111.750996" style="fill: #4169e1; stroke: #4169e1; stroke-width: 2"/>
     <use xlink:href="#md5bdbd78cb" x="91.373406" y="111.750996" style="fill: #4169e1; stroke: #4169e1; stroke-width: 2"/>
     <use xlink:href="#md5bdbd78cb" x="91.373406" y="111.750706" style="fill: #4169e1; stroke: #4169e1; stroke-width: 2"/>
     <use xlink:href="#md5bdbd78cb" x="91.373406" y="23.392586" style="fill: #4169e1; stroke: #4169e1; stroke-width: 2"/>
     <use xlink:href="#md5bdbd78cb" x="91.373406" y="111.7183" style="fill: #4169e1; stroke: #4169e1; stroke-width: 2"/>
     <use xlink:href="#md5bdbd78cb" x="91.373406" y="23.392586" style="fill: #4169e1; stroke: #4169e1; stroke-width: 2"/>
     <use xlink:href="#md5bdbd78cb" x="91.373406" y="111.718169" style="fill: #4169e1; stroke: #4169e1; stroke-width: 2"/>
     <use xlink:href="#md5bdbd78cb" x="91.373406" y="23.379649" style="fill: #4169e1; stroke: #4169e1; stroke-width: 2"/>
     <use xlink:href="#md5bdbd78cb" x="91.373406" y="111.718169" style="fill: #4169e1; stroke: #4169e1; stroke-width: 2"/>
     <use xlink:href="#md5bdbd78cb" x="91.373406" y="23.373317" style="fill: #4169e1; stroke: #4169e1; stroke-width: 2"/>
     <use xlink:href="#md5bdbd78cb" x="91.373406" y="111.721545" style="fill: #4169e1; stroke: #4169e1; stroke-width: 2"/>
     <use xlink:href="#md5bdbd78cb" x="91.373406" y="23.372874" style="fill: #4169e1; stroke: #4169e1; stroke-width: 2"/>
     <use xlink:href="#md5bdbd78cb" x="91.373406" y="111.721545" style="fill: #4169e1; stroke: #4169e1; stroke-width: 2"/>
     <use xlink:href="#md5bdbd78cb" x="91.373406" y="23.372874" style="fill: #4169e1; stroke: #4169e1; stroke-width: 2"/>
     <use xlink:href="#md5bdbd78cb" x="91.373406" y="111.721545" style="fill: #4169e1; stroke: #4169e1; stroke-width: 2"/>
     <use xlink:href="#md5bdbd78cb" x="91.373406" y="23.372874" style="fill: #4169e1; stroke: #4169e1; stroke-width: 2"/>
     <use xlink:href="#md5bdbd78cb" x="91.373406" y="111.721545" style="fill: #4169e1; stroke: #4169e1; stroke-width: 2"/>
     <use xlink:href="#md5bdbd78cb" x="91.373406" y="111.721545" style="fill: #4169e1; stroke: #4169e1; stroke-width: 2"/>
     <use xlink:href="#md5bdbd78cb" x="91.373406" y="111.688253" style="fill: #4169e1; stroke: #4169e1; stroke-width: 2"/>
     <use xlink:href="#md5bdbd78cb" x="91.373406" y="23.349675" style="fill: #4169e1; stroke: #4169e1; stroke-width: 2"/>
     <use xlink:href="#md5bdbd78cb" x="91.373406" y="111.688253" style="fill: #4169e1; stroke: #4169e1; stroke-width: 2"/>
     <use xlink:href="#md5bdbd78cb" x="91.373406" y="23.349128" style="fill: #4169e1; stroke: #4169e1; stroke-width: 2"/>
     <use xlink:href="#md5bdbd78cb" x="91.373406" y="111.688253" style="fill: #4169e1; stroke: #4169e1; stroke-width: 2"/>
     <use xlink:href="#md5bdbd78cb" x="91.373406" y="23.349128" style="fill: #4169e1; stroke: #4169e1; stroke-width: 2"/>
     <use xlink:href="#md5bdbd78cb" x="91.373406" y="111.686866" style="fill: #4169e1; stroke: #4169e1; stroke-width: 2"/>
     <use xlink:href="#md5bdbd78cb" x="91.373406" y="23.34859" style="fill: #4169e1; stroke: #4169e1; stroke-width: 2"/>
     <use xlink:href="#md5bdbd78cb" x="91.373406" y="111.686866" style="fill: #4169e1; stroke: #4169e1; stroke-width: 2"/>
     <use xlink:href="#md5bdbd78cb" x="91.373406" y="111.686866" style="fill: #4169e1; stroke: #4169e1; stroke-width: 2"/>
     <use xlink:href="#md5bdbd78cb" x="91.373406" y="111.677308" style="fill: #4169e1; stroke: #4169e1; stroke-width: 2"/>
     <use xlink:href="#md5bdbd78cb" x="91.373406" y="111.677308" style="fill: #4169e1; stroke: #4169e1; stroke-width: 2"/>
     <use xlink:href="#md5bdbd78cb" x="91.373406" y="111.663396" style="fill: #4169e1; stroke: #4169e1; stroke-width: 2"/>
     <use xlink:href="#md5bdbd78cb" x="91.373406" y="23.337486" style="fill: #4169e1; stroke: #4169e1; stroke-width: 2"/>
     <use xlink:href="#md5bdbd78cb" x="91.373406" y="111.663396" style="fill: #4169e1; stroke: #4169e1; stroke-width: 2"/>
     <use xlink:href="#md5bdbd78cb" x="91.373406" y="23.337486" style="fill: #4169e1; stroke: #4169e1; stroke-width: 2"/>
     <use xlink:href="#md5bdbd78cb" x="91.373406" y="111.663396" style="fill: #4169e1; stroke: #4169e1; stroke-width: 2"/>
     <use xlink:href="#md5bdbd78cb" x="91.373406" y="111.663396" style="fill: #4169e1; stroke: #4169e1; stroke-width: 2"/>
     <use xlink:href="#md5bdbd78cb" x="91.373406" y="111.632539" style="fill: #4169e1; stroke: #4169e1; stroke-width: 2"/>
     <use xlink:href="#md5bdbd78cb" x="91.373406" y="111.638331" style="fill: #4169e1; stroke: #4169e1; stroke-width: 2"/>
     <use xlink:href="#md5bdbd78cb" x="91.373406" y="111.638404" style="fill: #4169e1; stroke: #4169e1; stroke-width: 2"/>
     <use xlink:href="#md5bdbd78cb" x="91.373406" y="23.332029" style="fill: #4169e1; stroke: #4169e1; stroke-width: 2"/>
     <use xlink:href="#md5bdbd78cb" x="91.373406" y="111.639361" style="fill: #4169e1; stroke: #4169e1; stroke-width: 2"/>
     <use xlink:href="#md5bdbd78cb" x="91.373406" y="23.325455" style="fill: #4169e1; stroke: #4169e1; stroke-width: 2"/>
     <use xlink:href="#md5bdbd78cb" x="91.373406" y="111.639361" style="fill: #4169e1; stroke: #4169e1; stroke-width: 2"/>
     <use xlink:href="#md5bdbd78cb" x="91.373406" y="111.639361" style="fill: #4169e1; stroke: #4169e1; stroke-width: 2"/>
     <use xlink:href="#md5bdbd78cb" x="91.373406" y="111.638211" style="fill: #4169e1; stroke: #4169e1; stroke-width: 2"/>
     <use xlink:href="#md5bdbd78cb" x="91.373406" y="111.63265" style="fill: #4169e1; stroke: #4169e1; stroke-width: 2"/>
     <use xlink:href="#md5bdbd78cb" x="91.373406" y="23.325455" style="fill: #4169e1; stroke: #4169e1; stroke-width: 2"/>
     <use xlink:href="#md5bdbd78cb" x="91.373406" y="111.630379" style="fill: #4169e1; stroke: #4169e1; stroke-width: 2"/>
    </g>
   </g>
   <g id="matplotlib.axis_1">
    <g id="xtick_1">
     <g id="line2d_1">
      <defs>
       <path id="ma912bf28fc" d="M 0 0 
L 0 3.5 
" style="stroke: #000000; stroke-width: 0.8"/>
      </defs>
      <g>
       <use xlink:href="#ma912bf28fc" x="87.919649" y="286.36" style="stroke: #000000; stroke-width: 0.8"/>
      </g>
     </g>
     <g id="text_1">
      <!-- 0 -->
      <g transform="translate(82.511524 306.277344)scale(0.17 -0.17)">
       <defs>
        <path id="DejaVuSans-30" d="M 2034 4250 
Q 1547 4250 1301 3770 
Q 1056 3291 1056 2328 
Q 1056 1369 1301 889 
Q 1547 409 2034 409 
Q 2525 409 2770 889 
Q 3016 1369 3016 2328 
Q 3016 3291 2770 3770 
Q 2525 4250 2034 4250 
z
M 2034 4750 
Q 2819 4750 3233 4129 
Q 3647 3509 3647 2328 
Q 3647 1150 3233 529 
Q 2819 -91 2034 -91 
Q 1250 -91 836 529 
Q 422 1150 422 2328 
Q 422 3509 836 4129 
Q 1250 4750 2034 4750 
z
" transform="scale(0.015625)"/>
       </defs>
       <use xlink:href="#DejaVuSans-30"/>
      </g>
     </g>
    </g>
    <g id="xtick_2">
     <g id="line2d_2">
      <g>
       <use xlink:href="#ma912bf28fc" x="156.994775" y="286.36" style="stroke: #000000; stroke-width: 0.8"/>
      </g>
     </g>
     <g id="text_2">
      <!-- 20 -->
      <g transform="translate(146.178525 306.277344)scale(0.17 -0.17)">
       <defs>
        <path id="DejaVuSans-32" d="M 1228 531 
L 3431 531 
L 3431 0 
L 469 0 
L 469 531 
Q 828 903 1448 1529 
Q 2069 2156 2228 2338 
Q 2531 2678 2651 2914 
Q 2772 3150 2772 3378 
Q 2772 3750 2511 3984 
Q 2250 4219 1831 4219 
Q 1534 4219 1204 4116 
Q 875 4013 500 3803 
L 500 4441 
Q 881 4594 1212 4672 
Q 1544 4750 1819 4750 
Q 2544 4750 2975 4387 
Q 3406 4025 3406 3419 
Q 3406 3131 3298 2873 
Q 3191 2616 2906 2266 
Q 2828 2175 2409 1742 
Q 1991 1309 1228 531 
z
" transform="scale(0.015625)"/>
       </defs>
       <use xlink:href="#DejaVuSans-32"/>
       <use xlink:href="#DejaVuSans-30" x="63.623047"/>
      </g>
     </g>
    </g>
    <g id="xtick_3">
     <g id="line2d_3">
      <g>
       <use xlink:href="#ma912bf28fc" x="226.0699" y="286.36" style="stroke: #000000; stroke-width: 0.8"/>
      </g>
     </g>
     <g id="text_3">
      <!-- 40 -->
      <g transform="translate(215.25365 306.277344)scale(0.17 -0.17)">
       <defs>
        <path id="DejaVuSans-34" d="M 2419 4116 
L 825 1625 
L 2419 1625 
L 2419 4116 
z
M 2253 4666 
L 3047 4666 
L 3047 1625 
L 3713 1625 
L 3713 1100 
L 3047 1100 
L 3047 0 
L 2419 0 
L 2419 1100 
L 313 1100 
L 313 1709 
L 2253 4666 
z
" transform="scale(0.015625)"/>
       </defs>
       <use xlink:href="#DejaVuSans-34"/>
       <use xlink:href="#DejaVuSans-30" x="63.623047"/>
      </g>
     </g>
    </g>
    <g id="xtick_4">
     <g id="line2d_4">
      <g>
       <use xlink:href="#ma912bf28fc" x="295.145026" y="286.36" style="stroke: #000000; stroke-width: 0.8"/>
      </g>
     </g>
     <g id="text_4">
      <!-- 60 -->
      <g transform="translate(284.328776 306.277344)scale(0.17 -0.17)">
       <defs>
        <path id="DejaVuSans-36" d="M 2113 2584 
Q 1688 2584 1439 2293 
Q 1191 2003 1191 1497 
Q 1191 994 1439 701 
Q 1688 409 2113 409 
Q 2538 409 2786 701 
Q 3034 994 3034 1497 
Q 3034 2003 2786 2293 
Q 2538 2584 2113 2584 
z
M 3366 4563 
L 3366 3988 
Q 3128 4100 2886 4159 
Q 2644 4219 2406 4219 
Q 1781 4219 1451 3797 
Q 1122 3375 1075 2522 
Q 1259 2794 1537 2939 
Q 1816 3084 2150 3084 
Q 2853 3084 3261 2657 
Q 3669 2231 3669 1497 
Q 3669 778 3244 343 
Q 2819 -91 2113 -91 
Q 1303 -91 875 529 
Q 447 1150 447 2328 
Q 447 3434 972 4092 
Q 1497 4750 2381 4750 
Q 2619 4750 2861 4703 
Q 3103 4656 3366 4563 
z
" transform="scale(0.015625)"/>
       </defs>
       <use xlink:href="#DejaVuSans-36"/>
       <use xlink:href="#DejaVuSans-30" x="63.623047"/>
      </g>
     </g>
    </g>
    <g id="xtick_5">
     <g id="line2d_5">
      <g>
       <use xlink:href="#ma912bf28fc" x="364.220151" y="286.36" style="stroke: #000000; stroke-width: 0.8"/>
      </g>
     </g>
     <g id="text_5">
      <!-- 80 -->
      <g transform="translate(353.403901 306.277344)scale(0.17 -0.17)">
       <defs>
        <path id="DejaVuSans-38" d="M 2034 2216 
Q 1584 2216 1326 1975 
Q 1069 1734 1069 1313 
Q 1069 891 1326 650 
Q 1584 409 2034 409 
Q 2484 409 2743 651 
Q 3003 894 3003 1313 
Q 3003 1734 2745 1975 
Q 2488 2216 2034 2216 
z
M 1403 2484 
Q 997 2584 770 2862 
Q 544 3141 544 3541 
Q 544 4100 942 4425 
Q 1341 4750 2034 4750 
Q 2731 4750 3128 4425 
Q 3525 4100 3525 3541 
Q 3525 3141 3298 2862 
Q 3072 2584 2669 2484 
Q 3125 2378 3379 2068 
Q 3634 1759 3634 1313 
Q 3634 634 3220 271 
Q 2806 -91 2034 -91 
Q 1263 -91 848 271 
Q 434 634 434 1313 
Q 434 1759 690 2068 
Q 947 2378 1403 2484 
z
M 1172 3481 
Q 1172 3119 1398 2916 
Q 1625 2713 2034 2713 
Q 2441 2713 2670 2916 
Q 2900 3119 2900 3481 
Q 2900 3844 2670 4047 
Q 2441 4250 2034 4250 
Q 1625 4250 1398 4047 
Q 1172 3844 1172 3481 
z
" transform="scale(0.015625)"/>
       </defs>
       <use xlink:href="#DejaVuSans-38"/>
       <use xlink:href="#DejaVuSans-30" x="63.623047"/>
      </g>
     </g>
    </g>
    <g id="xtick_6">
     <g id="line2d_6">
      <g>
       <use xlink:href="#ma912bf28fc" x="433.295276" y="286.36" style="stroke: #000000; stroke-width: 0.8"/>
      </g>
     </g>
     <g id="text_6">
      <!-- 100 -->
      <g transform="translate(417.070901 306.277344)scale(0.17 -0.17)">
       <defs>
        <path id="DejaVuSans-31" d="M 794 531 
L 1825 531 
L 1825 4091 
L 703 3866 
L 703 4441 
L 1819 4666 
L 2450 4666 
L 2450 531 
L 3481 531 
L 3481 0 
L 794 0 
L 794 531 
z
" transform="scale(0.015625)"/>
       </defs>
       <use xlink:href="#DejaVuSans-31"/>
       <use xlink:href="#DejaVuSans-30" x="63.623047"/>
       <use xlink:href="#DejaVuSans-30" x="127.246094"/>
      </g>
     </g>
    </g>
    <g id="text_7">
     <!-- Number of layer shared -->
     <g transform="translate(142.110588 329.009687)scale(0.2 -0.2)">
      <defs>
       <path id="DejaVuSans-4e" d="M 628 4666 
L 1478 4666 
L 3547 763 
L 3547 4666 
L 4159 4666 
L 4159 0 
L 3309 0 
L 1241 3903 
L 1241 0 
L 628 0 
L 628 4666 
z
" transform="scale(0.015625)"/>
       <path id="DejaVuSans-75" d="M 544 1381 
L 544 3500 
L 1119 3500 
L 1119 1403 
Q 1119 906 1312 657 
Q 1506 409 1894 409 
Q 2359 409 2629 706 
Q 2900 1003 2900 1516 
L 2900 3500 
L 3475 3500 
L 3475 0 
L 2900 0 
L 2900 538 
Q 2691 219 2414 64 
Q 2138 -91 1772 -91 
Q 1169 -91 856 284 
Q 544 659 544 1381 
z
M 1991 3584 
L 1991 3584 
z
" transform="scale(0.015625)"/>
       <path id="DejaVuSans-6d" d="M 3328 2828 
Q 3544 3216 3844 3400 
Q 4144 3584 4550 3584 
Q 5097 3584 5394 3201 
Q 5691 2819 5691 2113 
L 5691 0 
L 5113 0 
L 5113 2094 
Q 5113 2597 4934 2840 
Q 4756 3084 4391 3084 
Q 3944 3084 3684 2787 
Q 3425 2491 3425 1978 
L 3425 0 
L 2847 0 
L 2847 2094 
Q 2847 2600 2669 2842 
Q 2491 3084 2119 3084 
Q 1678 3084 1418 2786 
Q 1159 2488 1159 1978 
L 1159 0 
L 581 0 
L 581 3500 
L 1159 3500 
L 1159 2956 
Q 1356 3278 1631 3431 
Q 1906 3584 2284 3584 
Q 2666 3584 2933 3390 
Q 3200 3197 3328 2828 
z
" transform="scale(0.015625)"/>
       <path id="DejaVuSans-62" d="M 3116 1747 
Q 3116 2381 2855 2742 
Q 2594 3103 2138 3103 
Q 1681 3103 1420 2742 
Q 1159 2381 1159 1747 
Q 1159 1113 1420 752 
Q 1681 391 2138 391 
Q 2594 391 2855 752 
Q 3116 1113 3116 1747 
z
M 1159 2969 
Q 1341 3281 1617 3432 
Q 1894 3584 2278 3584 
Q 2916 3584 3314 3078 
Q 3713 2572 3713 1747 
Q 3713 922 3314 415 
Q 2916 -91 2278 -91 
Q 1894 -91 1617 61 
Q 1341 213 1159 525 
L 1159 0 
L 581 0 
L 581 4863 
L 1159 4863 
L 1159 2969 
z
" transform="scale(0.015625)"/>
       <path id="DejaVuSans-65" d="M 3597 1894 
L 3597 1613 
L 953 1613 
Q 991 1019 1311 708 
Q 1631 397 2203 397 
Q 2534 397 2845 478 
Q 3156 559 3463 722 
L 3463 178 
Q 3153 47 2828 -22 
Q 2503 -91 2169 -91 
Q 1331 -91 842 396 
Q 353 884 353 1716 
Q 353 2575 817 3079 
Q 1281 3584 2069 3584 
Q 2775 3584 3186 3129 
Q 3597 2675 3597 1894 
z
M 3022 2063 
Q 3016 2534 2758 2815 
Q 2500 3097 2075 3097 
Q 1594 3097 1305 2825 
Q 1016 2553 972 2059 
L 3022 2063 
z
" transform="scale(0.015625)"/>
       <path id="DejaVuSans-72" d="M 2631 2963 
Q 2534 3019 2420 3045 
Q 2306 3072 2169 3072 
Q 1681 3072 1420 2755 
Q 1159 2438 1159 1844 
L 1159 0 
L 581 0 
L 581 3500 
L 1159 3500 
L 1159 2956 
Q 1341 3275 1631 3429 
Q 1922 3584 2338 3584 
Q 2397 3584 2469 3576 
Q 2541 3569 2628 3553 
L 2631 2963 
z
" transform="scale(0.015625)"/>
       <path id="DejaVuSans-20" transform="scale(0.015625)"/>
       <path id="DejaVuSans-6f" d="M 1959 3097 
Q 1497 3097 1228 2736 
Q 959 2375 959 1747 
Q 959 1119 1226 758 
Q 1494 397 1959 397 
Q 2419 397 2687 759 
Q 2956 1122 2956 1747 
Q 2956 2369 2687 2733 
Q 2419 3097 1959 3097 
z
M 1959 3584 
Q 2709 3584 3137 3096 
Q 3566 2609 3566 1747 
Q 3566 888 3137 398 
Q 2709 -91 1959 -91 
Q 1206 -91 779 398 
Q 353 888 353 1747 
Q 353 2609 779 3096 
Q 1206 3584 1959 3584 
z
" transform="scale(0.015625)"/>
       <path id="DejaVuSans-66" d="M 2375 4863 
L 2375 4384 
L 1825 4384 
Q 1516 4384 1395 4259 
Q 1275 4134 1275 3809 
L 1275 3500 
L 2222 3500 
L 2222 3053 
L 1275 3053 
L 1275 0 
L 697 0 
L 697 3053 
L 147 3053 
L 147 3500 
L 697 3500 
L 697 3744 
Q 697 4328 969 4595 
Q 1241 4863 1831 4863 
L 2375 4863 
z
" transform="scale(0.015625)"/>
       <path id="DejaVuSans-6c" d="M 603 4863 
L 1178 4863 
L 1178 0 
L 603 0 
L 603 4863 
z
" transform="scale(0.015625)"/>
       <path id="DejaVuSans-61" d="M 2194 1759 
Q 1497 1759 1228 1600 
Q 959 1441 959 1056 
Q 959 750 1161 570 
Q 1363 391 1709 391 
Q 2188 391 2477 730 
Q 2766 1069 2766 1631 
L 2766 1759 
L 2194 1759 
z
M 3341 1997 
L 3341 0 
L 2766 0 
L 2766 531 
Q 2569 213 2275 61 
Q 1981 -91 1556 -91 
Q 1019 -91 701 211 
Q 384 513 384 1019 
Q 384 1609 779 1909 
Q 1175 2209 1959 2209 
L 2766 2209 
L 2766 2266 
Q 2766 2663 2505 2880 
Q 2244 3097 1772 3097 
Q 1472 3097 1187 3025 
Q 903 2953 641 2809 
L 641 3341 
Q 956 3463 1253 3523 
Q 1550 3584 1831 3584 
Q 2591 3584 2966 3190 
Q 3341 2797 3341 1997 
z
" transform="scale(0.015625)"/>
       <path id="DejaVuSans-79" d="M 2059 -325 
Q 1816 -950 1584 -1140 
Q 1353 -1331 966 -1331 
L 506 -1331 
L 506 -850 
L 844 -850 
Q 1081 -850 1212 -737 
Q 1344 -625 1503 -206 
L 1606 56 
L 191 3500 
L 800 3500 
L 1894 763 
L 2988 3500 
L 3597 3500 
L 2059 -325 
z
" transform="scale(0.015625)"/>
       <path id="DejaVuSans-73" d="M 2834 3397 
L 2834 2853 
Q 2591 2978 2328 3040 
Q 2066 3103 1784 3103 
Q 1356 3103 1142 2972 
Q 928 2841 928 2578 
Q 928 2378 1081 2264 
Q 1234 2150 1697 2047 
L 1894 2003 
Q 2506 1872 2764 1633 
Q 3022 1394 3022 966 
Q 3022 478 2636 193 
Q 2250 -91 1575 -91 
Q 1294 -91 989 -36 
Q 684 19 347 128 
L 347 722 
Q 666 556 975 473 
Q 1284 391 1588 391 
Q 1994 391 2212 530 
Q 2431 669 2431 922 
Q 2431 1156 2273 1281 
Q 2116 1406 1581 1522 
L 1381 1569 
Q 847 1681 609 1914 
Q 372 2147 372 2553 
Q 372 3047 722 3315 
Q 1072 3584 1716 3584 
Q 2034 3584 2315 3537 
Q 2597 3491 2834 3397 
z
" transform="scale(0.015625)"/>
       <path id="DejaVuSans-68" d="M 3513 2113 
L 3513 0 
L 2938 0 
L 2938 2094 
Q 2938 2591 2744 2837 
Q 2550 3084 2163 3084 
Q 1697 3084 1428 2787 
Q 1159 2491 1159 1978 
L 1159 0 
L 581 0 
L 581 4863 
L 1159 4863 
L 1159 2956 
Q 1366 3272 1645 3428 
Q 1925 3584 2291 3584 
Q 2894 3584 3203 3211 
Q 3513 2838 3513 2113 
z
" transform="scale(0.015625)"/>
       <path id="DejaVuSans-64" d="M 2906 2969 
L 2906 4863 
L 3481 4863 
L 3481 0 
L 2906 0 
L 2906 525 
Q 2725 213 2448 61 
Q 2172 -91 1784 -91 
Q 1150 -91 751 415 
Q 353 922 353 1747 
Q 353 2572 751 3078 
Q 1150 3584 1784 3584 
Q 2172 3584 2448 3432 
Q 2725 3281 2906 2969 
z
M 947 1747 
Q 947 1113 1208 752 
Q 1469 391 1925 391 
Q 2381 391 2643 752 
Q 2906 1113 2906 1747 
Q 2906 2381 2643 2742 
Q 2381 3103 1925 3103 
Q 1469 3103 1208 2742 
Q 947 2381 947 1747 
z
" transform="scale(0.015625)"/>
      </defs>
      <use xlink:href="#DejaVuSans-4e"/>
      <use xlink:href="#DejaVuSans-75" x="74.804688"/>
      <use xlink:href="#DejaVuSans-6d" x="138.183594"/>
      <use xlink:href="#DejaVuSans-62" x="235.595703"/>
      <use xlink:href="#DejaVuSans-65" x="299.072266"/>
      <use xlink:href="#DejaVuSans-72" x="360.595703"/>
      <use xlink:href="#DejaVuSans-20" x="401.708984"/>
      <use xlink:href="#DejaVuSans-6f" x="433.496094"/>
      <use xlink:href="#DejaVuSans-66" x="494.677734"/>
      <use xlink:href="#DejaVuSans-20" x="529.882812"/>
      <use xlink:href="#DejaVuSans-6c" x="561.669922"/>
      <use xlink:href="#DejaVuSans-61" x="589.453125"/>
      <use xlink:href="#DejaVuSans-79" x="650.732422"/>
      <use xlink:href="#DejaVuSans-65" x="709.912109"/>
      <use xlink:href="#DejaVuSans-72" x="771.435547"/>
      <use xlink:href="#DejaVuSans-20" x="812.548828"/>
      <use xlink:href="#DejaVuSans-73" x="844.335938"/>
      <use xlink:href="#DejaVuSans-68" x="896.435547"/>
      <use xlink:href="#DejaVuSans-61" x="959.814453"/>
      <use xlink:href="#DejaVuSans-72" x="1021.09375"/>
      <use xlink:href="#DejaVuSans-65" x="1059.957031"/>
      <use xlink:href="#DejaVuSans-64" x="1121.480469"/>
     </g>
    </g>
   </g>
   <g id="matplotlib.axis_2">
    <g id="ytick_1">
     <g id="line2d_7">
      <defs>
       <path id="ma6b1cfc8cc" d="M 0 0 
L -3.5 0 
" style="stroke: #000000; stroke-width: 0.8"/>
      </defs>
      <g>
       <use xlink:href="#ma6b1cfc8cc" x="74.45" y="278.636785" style="stroke: #000000; stroke-width: 0.8"/>
      </g>
     </g>
     <g id="text_8">
      <!-- 0 -->
      <g transform="translate(56.63375 285.095457)scale(0.17 -0.17)">
       <use xlink:href="#DejaVuSans-30"/>
      </g>
     </g>
    </g>
    <g id="ytick_2">
     <g id="line2d_8">
      <g>
       <use xlink:href="#ma6b1cfc8cc" x="74.45" y="244.114302" style="stroke: #000000; stroke-width: 0.8"/>
      </g>
     </g>
     <g id="text_9">
      <!-- 25 -->
      <g transform="translate(45.8175 250.572974)scale(0.17 -0.17)">
       <defs>
        <path id="DejaVuSans-35" d="M 691 4666 
L 3169 4666 
L 3169 4134 
L 1269 4134 
L 1269 2991 
Q 1406 3038 1543 3061 
Q 1681 3084 1819 3084 
Q 2600 3084 3056 2656 
Q 3513 2228 3513 1497 
Q 3513 744 3044 326 
Q 2575 -91 1722 -91 
Q 1428 -91 1123 -41 
Q 819 9 494 109 
L 494 744 
Q 775 591 1075 516 
Q 1375 441 1709 441 
Q 2250 441 2565 725 
Q 2881 1009 2881 1497 
Q 2881 1984 2565 2268 
Q 2250 2553 1709 2553 
Q 1456 2553 1204 2497 
Q 953 2441 691 2322 
L 691 4666 
z
" transform="scale(0.015625)"/>
       </defs>
       <use xlink:href="#DejaVuSans-32"/>
       <use xlink:href="#DejaVuSans-35" x="63.623047"/>
      </g>
     </g>
    </g>
    <g id="ytick_3">
     <g id="line2d_9">
      <g>
       <use xlink:href="#ma6b1cfc8cc" x="74.45" y="209.59182" style="stroke: #000000; stroke-width: 0.8"/>
      </g>
     </g>
     <g id="text_10">
      <!-- 50 -->
      <g transform="translate(45.8175 216.050492)scale(0.17 -0.17)">
       <use xlink:href="#DejaVuSans-35"/>
       <use xlink:href="#DejaVuSans-30" x="63.623047"/>
      </g>
     </g>
    </g>
    <g id="ytick_4">
     <g id="line2d_10">
      <g>
       <use xlink:href="#ma6b1cfc8cc" x="74.45" y="175.069338" style="stroke: #000000; stroke-width: 0.8"/>
      </g>
     </g>
     <g id="text_11">
      <!-- 75 -->
      <g transform="translate(45.8175 181.528009)scale(0.17 -0.17)">
       <defs>
        <path id="DejaVuSans-37" d="M 525 4666 
L 3525 4666 
L 3525 4397 
L 1831 0 
L 1172 0 
L 2766 4134 
L 525 4134 
L 525 4666 
z
" transform="scale(0.015625)"/>
       </defs>
       <use xlink:href="#DejaVuSans-37"/>
       <use xlink:href="#DejaVuSans-35" x="63.623047"/>
      </g>
     </g>
    </g>
    <g id="ytick_5">
     <g id="line2d_11">
      <g>
       <use xlink:href="#ma6b1cfc8cc" x="74.45" y="140.546855" style="stroke: #000000; stroke-width: 0.8"/>
      </g>
     </g>
     <g id="text_12">
      <!-- 100 -->
      <g transform="translate(35.00125 147.005527)scale(0.17 -0.17)">
       <use xlink:href="#DejaVuSans-31"/>
       <use xlink:href="#DejaVuSans-30" x="63.623047"/>
       <use xlink:href="#DejaVuSans-30" x="127.246094"/>
      </g>
     </g>
    </g>
    <g id="ytick_6">
     <g id="line2d_12">
      <g>
       <use xlink:href="#ma6b1cfc8cc" x="74.45" y="106.024373" style="stroke: #000000; stroke-width: 0.8"/>
      </g>
     </g>
     <g id="text_13">
      <!-- 125 -->
      <g transform="translate(35.00125 112.483045)scale(0.17 -0.17)">
       <use xlink:href="#DejaVuSans-31"/>
       <use xlink:href="#DejaVuSans-32" x="63.623047"/>
       <use xlink:href="#DejaVuSans-35" x="127.246094"/>
      </g>
     </g>
    </g>
    <g id="ytick_7">
     <g id="line2d_13">
      <g>
       <use xlink:href="#ma6b1cfc8cc" x="74.45" y="71.501891" style="stroke: #000000; stroke-width: 0.8"/>
      </g>
     </g>
     <g id="text_14">
      <!-- 150 -->
      <g transform="translate(35.00125 77.960562)scale(0.17 -0.17)">
       <use xlink:href="#DejaVuSans-31"/>
       <use xlink:href="#DejaVuSans-35" x="63.623047"/>
       <use xlink:href="#DejaVuSans-30" x="127.246094"/>
      </g>
     </g>
    </g>
    <g id="ytick_8">
     <g id="line2d_14">
      <g>
       <use xlink:href="#ma6b1cfc8cc" x="74.45" y="36.979408" style="stroke: #000000; stroke-width: 0.8"/>
      </g>
     </g>
     <g id="text_15">
      <!-- 175 -->
      <g transform="translate(35.00125 43.43808)scale(0.17 -0.17)">
       <use xlink:href="#DejaVuSans-31"/>
       <use xlink:href="#DejaVuSans-37" x="63.623047"/>
       <use xlink:href="#DejaVuSans-35" x="127.246094"/>
      </g>
     </g>
    </g>
    <g id="text_16">
     <!-- Layer size (MB) -->
     <g transform="translate(26.841875 225.500313)rotate(-90)scale(0.2 -0.2)">
      <defs>
       <path id="DejaVuSans-4c" d="M 628 4666 
L 1259 4666 
L 1259 531 
L 3531 531 
L 3531 0 
L 628 0 
L 628 4666 
z
" transform="scale(0.015625)"/>
       <path id="DejaVuSans-69" d="M 603 3500 
L 1178 3500 
L 1178 0 
L 603 0 
L 603 3500 
z
M 603 4863 
L 1178 4863 
L 1178 4134 
L 603 4134 
L 603 4863 
z
" transform="scale(0.015625)"/>
       <path id="DejaVuSans-7a" d="M 353 3500 
L 3084 3500 
L 3084 2975 
L 922 459 
L 3084 459 
L 3084 0 
L 275 0 
L 275 525 
L 2438 3041 
L 353 3041 
L 353 3500 
z
" transform="scale(0.015625)"/>
       <path id="DejaVuSans-28" d="M 1984 4856 
Q 1566 4138 1362 3434 
Q 1159 2731 1159 2009 
Q 1159 1288 1364 580 
Q 1569 -128 1984 -844 
L 1484 -844 
Q 1016 -109 783 600 
Q 550 1309 550 2009 
Q 550 2706 781 3412 
Q 1013 4119 1484 4856 
L 1984 4856 
z
" transform="scale(0.015625)"/>
       <path id="DejaVuSans-4d" d="M 628 4666 
L 1569 4666 
L 2759 1491 
L 3956 4666 
L 4897 4666 
L 4897 0 
L 4281 0 
L 4281 4097 
L 3078 897 
L 2444 897 
L 1241 4097 
L 1241 0 
L 628 0 
L 628 4666 
z
" transform="scale(0.015625)"/>
       <path id="DejaVuSans-42" d="M 1259 2228 
L 1259 519 
L 2272 519 
Q 2781 519 3026 730 
Q 3272 941 3272 1375 
Q 3272 1813 3026 2020 
Q 2781 2228 2272 2228 
L 1259 2228 
z
M 1259 4147 
L 1259 2741 
L 2194 2741 
Q 2656 2741 2882 2914 
Q 3109 3088 3109 3444 
Q 3109 3797 2882 3972 
Q 2656 4147 2194 4147 
L 1259 4147 
z
M 628 4666 
L 2241 4666 
Q 2963 4666 3353 4366 
Q 3744 4066 3744 3513 
Q 3744 3084 3544 2831 
Q 3344 2578 2956 2516 
Q 3422 2416 3680 2098 
Q 3938 1781 3938 1306 
Q 3938 681 3513 340 
Q 3088 0 2303 0 
L 628 0 
L 628 4666 
z
" transform="scale(0.015625)"/>
       <path id="DejaVuSans-29" d="M 513 4856 
L 1013 4856 
Q 1481 4119 1714 3412 
Q 1947 2706 1947 2009 
Q 1947 1309 1714 600 
Q 1481 -109 1013 -844 
L 513 -844 
Q 928 -128 1133 580 
Q 1338 1288 1338 2009 
Q 1338 2731 1133 3434 
Q 928 4138 513 4856 
z
" transform="scale(0.015625)"/>
      </defs>
      <use xlink:href="#DejaVuSans-4c"/>
      <use xlink:href="#DejaVuSans-61" x="55.712891"/>
      <use xlink:href="#DejaVuSans-79" x="116.992188"/>
      <use xlink:href="#DejaVuSans-65" x="176.171875"/>
      <use xlink:href="#DejaVuSans-72" x="237.695312"/>
      <use xlink:href="#DejaVuSans-20" x="278.808594"/>
      <use xlink:href="#DejaVuSans-73" x="310.595703"/>
      <use xlink:href="#DejaVuSans-69" x="362.695312"/>
      <use xlink:href="#DejaVuSans-7a" x="390.478516"/>
      <use xlink:href="#DejaVuSans-65" x="442.96875"/>
      <use xlink:href="#DejaVuSans-20" x="504.492188"/>
      <use xlink:href="#DejaVuSans-28" x="536.279297"/>
      <use xlink:href="#DejaVuSans-4d" x="575.292969"/>
      <use xlink:href="#DejaVuSans-42" x="661.572266"/>
      <use xlink:href="#DejaVuSans-29" x="730.175781"/>
     </g>
    </g>
   </g>
   <g id="patch_3">
    <path d="M 74.45 286.36 
L 74.45 10.8 
" style="fill: none; stroke: #000000; stroke-width: 0.8; stroke-linejoin: miter; stroke-linecap: square"/>
   </g>
   <g id="patch_4">
    <path d="M 446.764926 286.36 
L 446.764926 10.8 
" style="fill: none; stroke: #000000; stroke-width: 0.8; stroke-linejoin: miter; stroke-linecap: square"/>
   </g>
   <g id="patch_5">
    <path d="M 74.45 286.36 
L 446.764926 286.36 
" style="fill: none; stroke: #000000; stroke-width: 0.8; stroke-linejoin: miter; stroke-linecap: square"/>
   </g>
   <g id="patch_6">
    <path d="M 74.45 10.8 
L 446.764926 10.8 
" style="fill: none; stroke: #000000; stroke-width: 0.8; stroke-linejoin: miter; stroke-linecap: square"/>
   </g>
   <g id="legend_1">
    <g id="PathCollection_3">
     <path d="M 241.420863 40.116993 
C 242.895962 40.116993 244.310844 39.53093 245.353896 38.487877 
C 246.396949 37.444824 246.983012 36.029943 246.983012 34.554844 
C 246.983012 33.079745 246.396949 31.664863 245.353896 30.621811 
C 244.310844 29.578758 242.895962 28.992695 241.420863 28.992695 
C 239.945764 28.992695 238.530883 29.578758 237.48783 30.621811 
C 236.444778 31.664863 235.858714 33.079745 235.858714 34.554844 
C 235.858714 36.029943 236.444778 37.444824 237.48783 38.487877 
C 238.530883 39.53093 239.945764 40.116993 241.420863 40.116993 
L 241.420863 40.116993 
z
" style="fill: none; stroke: #ff8c00; stroke-width: 2"/>
    </g>
    <g id="text_17">
     <!-- layer size &lt;10MB -->
     <g transform="translate(272.020863 39.017344)scale(0.17 -0.17)">
      <defs>
       <path id="DejaVuSans-3c" d="M 4684 3150 
L 1459 2003 
L 4684 863 
L 4684 294 
L 678 1747 
L 678 2266 
L 4684 3719 
L 4684 3150 
z
" transform="scale(0.015625)"/>
      </defs>
      <use xlink:href="#DejaVuSans-6c"/>
      <use xlink:href="#DejaVuSans-61" x="27.783203"/>
      <use xlink:href="#DejaVuSans-79" x="89.0625"/>
      <use xlink:href="#DejaVuSans-65" x="148.242188"/>
      <use xlink:href="#DejaVuSans-72" x="209.765625"/>
      <use xlink:href="#DejaVuSans-20" x="250.878906"/>
      <use xlink:href="#DejaVuSans-73" x="282.666016"/>
      <use xlink:href="#DejaVuSans-69" x="334.765625"/>
      <use xlink:href="#DejaVuSans-7a" x="362.548828"/>
      <use xlink:href="#DejaVuSans-65" x="415.039062"/>
      <use xlink:href="#DejaVuSans-20" x="476.5625"/>
      <use xlink:href="#DejaVuSans-3c" x="508.349609"/>
      <use xlink:href="#DejaVuSans-31" x="592.138672"/>
      <use xlink:href="#DejaVuSans-30" x="655.761719"/>
      <use xlink:href="#DejaVuSans-4d" x="719.384766"/>
      <use xlink:href="#DejaVuSans-42" x="805.664062"/>
     </g>
    </g>
    <g id="PathCollection_4">
     <defs>
      <path id="mecfe65f3f3" d="M -5.562149 5.562149 
L 5.562149 -5.562149 
M -5.562149 -5.562149 
L 5.562149 5.562149 
" style="stroke: #4169e1; stroke-width: 2"/>
     </defs>
     <g>
      <use xlink:href="#mecfe65f3f3" x="241.420863" y="59.507656" style="fill: #4169e1; stroke: #4169e1; stroke-width: 2"/>
     </g>
    </g>
    <g id="text_18">
     <!-- layer size &gt;100MB -->
     <g transform="translate(272.020863 63.970156)scale(0.17 -0.17)">
      <defs>
       <path id="DejaVuSans-3e" d="M 678 3150 
L 678 3719 
L 4684 2266 
L 4684 1747 
L 678 294 
L 678 863 
L 3897 2003 
L 678 3150 
z
" transform="scale(0.015625)"/>
      </defs>
      <use xlink:href="#DejaVuSans-6c"/>
      <use xlink:href="#DejaVuSans-61" x="27.783203"/>
      <use xlink:href="#DejaVuSans-79" x="89.0625"/>
      <use xlink:href="#DejaVuSans-65" x="148.242188"/>
      <use xlink:href="#DejaVuSans-72" x="209.765625"/>
      <use xlink:href="#DejaVuSans-20" x="250.878906"/>
      <use xlink:href="#DejaVuSans-73" x="282.666016"/>
      <use xlink:href="#DejaVuSans-69" x="334.765625"/>
      <use xlink:href="#DejaVuSans-7a" x="362.548828"/>
      <use xlink:href="#DejaVuSans-65" x="415.039062"/>
      <use xlink:href="#DejaVuSans-20" x="476.5625"/>
      <use xlink:href="#DejaVuSans-3e" x="508.349609"/>
      <use xlink:href="#DejaVuSans-31" x="592.138672"/>
      <use xlink:href="#DejaVuSans-30" x="655.761719"/>
      <use xlink:href="#DejaVuSans-30" x="719.384766"/>
      <use xlink:href="#DejaVuSans-4d" x="783.007812"/>
      <use xlink:href="#DejaVuSans-42" x="869.287109"/>
     </g>
    </g>
   </g>
  </g>
 </g>
 <defs>
  <clipPath id="pcfb1fbf590">
   <rect x="74.45" y="10.8" width="372.314926" height="275.56"/>
  </clipPath>
 </defs>
</svg>
